<!DOCTYPE svg PUBLIC "-//W3C//DTD SVG 1.1//EN" "http://www.w3.org/Graphics/SVG/1.1/DTD/svg11.dtd">
<!-- Uploaded to: SVG Repo, www.svgrepo.com, Transformed by: SVG Repo Mixer Tools -->
<svg version="1.1" id="Layer_1" xmlns="http://www.w3.org/2000/svg" xmlns:xlink="http://www.w3.org/1999/xlink" viewBox="0 0 512 512" xml:space="preserve" width="800px" height="800px" fill="#000000">
<g id="SVGRepo_bgCarrier" stroke-width="0"/>
<g id="SVGRepo_tracerCarrier" stroke-linecap="round" stroke-linejoin="round"/>
<g id="SVGRepo_iconCarrier"> <polygon style="fill:#46c700;" points="268.621,22.976 248.822,3.177 229.023,22.976 229.023,49.996 268.621,49.996 "/> <path style="fill:#BF9B5F;" d="M416.938,57.434L416.938,57.434c-17.519,0-31.851,14.334-31.851,31.851v149.418h-50.703V131.9 c0-46.487-38.035-84.521-84.521-84.521l0,0c-46.486,0-84.521,38.035-84.521,84.521v148.361h-62.356v-76.58 c0-17.518-14.334-31.851-31.851-31.851l0,0c-17.519,0-31.851,14.333-31.851,31.851v76.58v29.899 c0,18.669,15.135,33.804,33.804,33.804h29.898h62.356v162.727h169.043V302.405h50.703h29.899c18.669,0,33.804-15.135,33.804-33.804 v-29.899V89.285C448.789,71.766,434.457,57.434,416.938,57.434z"/> <g style="opacity:0.3;"> <path style="fill:#328777;" d="M303.75,131.9v106.803h30.431V131.9c0-46.487-38.035-84.521-84.521-84.521l0,0 c-5.193,0-10.273,0.499-15.215,1.408C273.73,56.008,303.75,90.607,303.75,131.9z"/> <rect x="303.745" y="302.403" style="fill:#328777;" width="30.436" height="204.29"/> <path style="fill:#328777;" d="M416.734,57.434L416.734,57.434c-5.501,0-10.687,1.415-15.216,3.897 c9.89,5.421,16.636,15.938,16.636,27.954v149.418v29.898c0,18.669-15.135,33.804-33.804,33.804h0.533h29.898 c18.669,0,33.804-15.135,33.804-33.804v-29.898V89.285C448.585,71.766,434.252,57.434,416.734,57.434z"/> </g> <g> <path style="fill:#328777;" d="M248.822,168.789c-4.311,0-7.804-3.493-7.804-7.804V85.616c0-4.311,3.493-7.804,7.804-7.804 c4.311,0,7.804,3.493,7.804,7.804v75.369C256.626,165.295,253.133,168.789,248.822,168.789z"/> <path style="fill:#328777;" d="M417.959,157.687c-4.311,0-7.804-3.493-7.804-7.804V85.616c0-4.311,3.493-7.804,7.804-7.804 c4.311,0,7.804,3.493,7.804,7.804v64.267C425.763,154.193,422.27,157.687,417.959,157.687z"/> <path style="fill:#328777;" d="M417.959,243.153c-4.311,0-7.804-3.493-7.804-7.804v-45.804c0-4.311,3.493-7.804,7.804-7.804 c4.311,0,7.804,3.493,7.804,7.804v45.804C425.763,239.66,422.27,243.153,417.959,243.153z"/> <path style="fill:#328777;" d="M70.711,256.301c-4.311,0-7.804-3.493-7.804-7.804v-45.804c0-4.311,3.493-7.804,7.804-7.804 s7.804,3.493,7.804,7.804v45.804C78.515,252.808,75.022,256.301,70.711,256.301z"/> <path style="fill:#328777;" d="M70.711,313.105c-4.311,0-7.804-3.493-7.804-7.804v-21.562c0-4.311,3.493-7.804,7.804-7.804 s7.804,3.493,7.804,7.804v21.562C78.515,309.611,75.022,313.105,70.711,313.105z"/> <path style="fill:#328777;" d="M248.822,415.1c-4.311,0-7.804-3.493-7.804-7.804V191.628c0-4.311,3.493-7.804,7.804-7.804 c4.311,0,7.804,3.493,7.804,7.804v215.67C256.626,411.607,253.133,415.1,248.822,415.1z"/> <path style="fill:#328777;" d="M289.275,261.651c-4.311,0-7.804-3.493-7.804-7.804V110.219c0-4.311,3.493-7.804,7.804-7.804 c4.311,0,7.804,3.493,7.804,7.804v143.627C297.079,258.157,293.586,261.651,289.275,261.651z"/> <path style="fill:#328777;" d="M289.275,447.457c-4.311,0-7.804-3.493-7.804-7.804V296.026c0-4.311,3.493-7.804,7.804-7.804 c4.311,0,7.804,3.493,7.804,7.804v143.627C297.079,443.964,293.586,447.457,289.275,447.457z"/> <path style="fill:#328777;" d="M241.018,506.691v-64.356c0-4.311,3.493-7.804,7.804-7.804c4.311,0,7.804,3.493,7.804,7.804v64.356 H241.018z"/> <path style="fill:#328777;" d="M207.602,267.265c-4.311,0-7.804-3.493-7.804-7.804V110.219c0-4.311,3.493-7.804,7.804-7.804 c4.311,0,7.804,3.493,7.804,7.804v149.242C215.406,263.772,211.913,267.265,207.602,267.265z"/> <path style="fill:#328777;" d="M207.602,435.976c-4.311,0-7.804-3.493-7.804-7.804V296.577c0-4.311,3.493-7.804,7.804-7.804 c4.311,0,7.804,3.493,7.804,7.804v131.595C215.406,432.482,211.913,435.976,207.602,435.976z"/> <path style="fill:#328777;" d="M199.798,506.691v-37.127c0-4.624,3.493-8.372,7.804-8.372c4.311,0,7.804,3.748,7.804,8.372v37.127 H199.798z"/> <path style="fill:#328777;" d="M281.47,506.431v-37.36c0-4.352,3.493-7.878,7.804-7.878c4.311,0,7.804,3.526,7.804,7.878v37.36 H281.47z"/> </g> <polygon style="fill:#FF3F62;" points="285.617,54.951 285.617,10.594 248.822,47.388 212.028,10.594 212.028,54.951 "/> <path style="fill:#3EAC92;" d="M476.574,506.691c19.565,0,35.426-15.861,35.426-35.426s-15.861-35.426-35.426-35.426 c-3.369,0-6.624,0.481-9.711,1.359c-1.543-22.671-20.409-40.586-43.472-40.586c-22.943,0-41.733,17.731-43.446,40.236 c-2.69-0.653-5.497-1.008-8.388-1.008c-19.565,0-35.426,15.861-35.426,35.426s15.861,35.426,35.426,35.426H476.574z"/> <g style="opacity:0.3;"> <path style="fill:#9C7F4D;" d="M452.952,417.093c1.68-0.478,3.413-0.826,5.184-1.055c-1.906-2.517-4.073-4.826-6.47-6.874 C452.326,411.725,452.767,414.374,452.952,417.093z"/> <path style="fill:#9C7F4D;" d="M497.515,444.827c0.371,2.056,0.575,4.172,0.575,6.335c0,19.565-15.861,35.426-35.426,35.426 H357.646c-7.836,0-15.073-2.549-20.941-6.856c2.987,16.54,17.449,29.092,34.851,29.092h105.018 c19.565,0,35.426-15.861,35.426-35.426C512,461.667,506.296,451.274,497.515,444.827z"/> </g> <path style="fill:#3EAC92;" d="M129.74,506.691c18.074,0,32.726-14.652,32.726-32.727c0-18.075-14.652-32.726-32.726-32.726 c-3.112,0-6.119,0.443-8.972,1.255c-1.426-20.944-18.854-37.494-40.159-37.494c-21.195,0-38.552,16.379-40.135,37.169 c-2.485-0.603-5.078-0.931-7.749-0.931C14.652,441.238,0,455.89,0,473.964c0,18.074,14.652,32.727,32.726,32.727H129.74z"/> <path style="opacity:0.3;fill:#9C7F4D;enable-background:new ;" d="M151.79,451.915c-1.59,16.593-15.563,29.568-32.572,29.568 H22.204c-8.495,0-16.232-3.238-22.05-8.545C0.055,473.978,0,475.03,0,476.097c0,18.074,14.652,32.726,32.726,32.726h97.014 c18.074,0,32.726-14.652,32.726-32.726C162.468,466.517,158.35,457.9,151.79,451.915z"/> </g>
</svg>