<?xml version="1.0" encoding="iso-8859-1"?>
<!-- Uploaded to: SVG Repo, www.svgrepo.com, Generator: SVG Repo Mixer Tools -->
<svg height="800px" width="800px" version="1.1" id="Layer_1" xmlns="http://www.w3.org/2000/svg" xmlns:xlink="http://www.w3.org/1999/xlink" 
	 viewBox="0 0 512 512" xml:space="preserve">
<circle style="fill:#366695;" cx="256" cy="256" r="256"/>
<path style="fill:#263A7A;" d="M511.472,239.756L385.336,113.619c-43.16,52.41-76.781,111.221-110.373,171.687
	c-26.183,44.665-20.844,112.681-63.29,141.783l82.194,82.118C417.294,490.905,512,384.517,512,256
	C512,250.542,511.809,245.129,511.472,239.756z"/>
<ellipse style="fill:#E5CB80;" cx="256" cy="437.372" rx="22.549" ry="10.269"/>
<path style="fill:#FFC61B;" d="M278.543,437.372c0-5.627-9.938-10.19-22.256-10.262v20.525
	C268.603,447.564,278.543,442.999,278.543,437.372z"/>
<path style="fill:#E59A23;" d="M228.212,171.82c0,0-32.432-42.234-96.213-52.576c0,0-21.707,78.433,63.621,114.633"/>
<path style="fill:#FFEDB5;" d="M195.618,241.18c-0.952,0-1.917-0.186-2.848-0.583c-46.954-19.921-62.945-52.358-68.091-76.064
	c-5.558-25.598,0.043-46.366,0.286-47.237c0.991-3.589,4.534-5.858,8.204-5.26c65.883,10.683,125.299,53.519,126.693,55.337
	c2.457,3.196-24.005,7.782-27.203,10.237c-3.191,2.455-7.77,1.858-10.228-1.331l0,0c-0.298-0.384-29.256-37.062-84.695-48.552
	c-2.812,18.61-4.461,71.771,60.737,99.431c3.71,1.574,5.442,5.86,3.868,9.573C201.161,239.511,198.459,241.178,195.618,241.18z"/>
<path style="fill:#CC8217;" d="M284.615,171.82c0,0,32.432-42.234,96.213-52.576c0,0,18.26,86.19-67.069,122.39"/>
<path style="fill:#FEE187;" d="M313.765,248.937c-2.841,0-5.544-1.67-6.723-4.451c-1.574-3.712,0.159-7.999,3.868-9.573
	c33.123-14.052,53.739-37.507,61.274-69.713c3.648-15.584,3.239-29.439,2.474-37.386c-55.41,11.621-83.956,48.069-84.251,48.45
	c-2.453,3.198-7.039,3.799-10.237,1.343c-3.198-2.455-29.66-7.039-27.203-10.237c1.396-1.819,60.811-44.653,126.693-55.337
	c3.849-0.624,7.504,1.884,8.309,5.694c0.2,0.945,4.83,23.454-1.569,50.797c-5.951,25.436-22.89,59.932-69.787,79.829
	C315.682,248.751,314.716,248.937,313.765,248.937z"/>
<path style="fill:#D48B07;" d="M256,147.123c-54.905,0-99.412,108.901-99.412,181.496c0,72.597,99.412,109.253,99.412,109.253
	s0.098-0.036,0.288-0.109V147.132C256.191,147.13,256.097,147.123,256,147.123z"/>
<path style="fill:#B57104;" d="M355.412,328.62c0-72.47-44.353-181.107-99.125-181.488v290.632
	C262.141,435.536,355.412,398.939,355.412,328.62z"/>
<path style="fill:#B77408;" d="M211.063,271.913c0-41.088,24.891-124.792,44.937-124.792c18.968,0,44.937,83.704,44.937,124.792
	c0,62.883-27.455,154.753-44.937,154.753C239.45,426.667,211.063,334.798,211.063,271.913z"/>
<path style="fill:#7C4E0B;" d="M300.937,271.913c0-40.881-25.707-123.937-44.649-124.771v279.5
	C273.782,425.653,300.937,334.455,300.937,271.913z"/>
<path style="fill:#FFEDB5;" d="M310.007,387.05c-6.32-17.025-13.328-33.887-22.366-46.254c-2.951-4.037-5.065-8.607-6.22-13.474
	c-5.832-24.538-11.967-54.774-25.69-54.774c-13.343,0-19.33,30.098-25.048,54.167c-1.153,4.853-3.258,9.411-6.199,13.44
	c-9.016,12.359-15.981,29.368-22.269,46.445c-6.406,17.394,0.733,36.933,16.925,45.956c13.128,7.315,25.743,4.625,36.795,4.625
	c11.159,0,23.519,3.055,36.231-3.672C308.9,424.653,316.595,404.799,310.007,387.05z"/>
<path style="fill:#FEE187;" d="M310.007,387.05c-6.322-17.025-13.328-33.887-22.366-46.254c-2.951-4.039-5.065-8.607-6.22-13.474
	c-5.751-24.2-11.804-53.92-25.131-54.736v164.6c11.066,0.062,23.3,2.977,35.878-3.679C308.9,424.653,316.595,404.797,310.007,387.05
	z"/>
<g>
	<path style="fill:#1E262B;" d="M329.457,310.45c-3.253,3.253-8.525,3.253-11.778,0c-3.253-3.253-3.253-8.525,0-11.778
		s15.434-3.656,15.434-3.656S332.71,307.197,329.457,310.45z"/>
	<path style="fill:#1E262B;" d="M194.332,298.656c3.263,3.277,3.281,8.589,0.04,11.866c-3.241,3.277-8.514,3.277-11.778,0
		c-3.263-3.277-3.71-15.551-3.71-15.551S191.069,295.379,194.332,298.656z"/>
</g>
<path id="SVGCleanerId_0" style="fill:#252828;" d="M245.851,420.038l-10.769-13.853c-5.325-6.851,0.64-15.848,10.509-15.848h21.54
	c9.868,0,15.834,8.997,10.509,15.848l-10.769,13.853C261.958,426.356,250.763,426.356,245.851,420.038z"/>
<g>
	<path id="SVGCleanerId_0_1_" style="fill:#252828;" d="M245.851,420.038l-10.769-13.853c-5.325-6.851,0.64-15.848,10.509-15.848
		h21.54c9.868,0,15.834,8.997,10.509,15.848l-10.769,13.853C261.958,426.356,250.763,426.356,245.851,420.038z"/>
</g>
</svg>