<?xml version="1.0" encoding="UTF-8" standalone="no"?><!DOCTYPE svg PUBLIC "-//W3C//DTD SVG 1.1//EN" "http://www.w3.org/Graphics/SVG/1.1/DTD/svg11.dtd"><svg width="100%" height="100%" viewBox="0 0 3334 3334" version="1.1" xmlns="http://www.w3.org/2000/svg" xmlns:xlink="http://www.w3.org/1999/xlink" xml:space="preserve" xmlns:serif="http://www.serif.com/" style="fill-rule:evenodd;clip-rule:evenodd;stroke-linejoin:round;stroke-miterlimit:2;"><g><g><path d="M2202.29,1740.75l72.842,56.084c0,-0 -38.779,178.479 -54.239,275.802c-15.459,97.322 -33.539,171.881 -54.238,220.707c-32.229,76.208 -115.815,82.147 -148.044,51.135c-67.078,-64.001 -102.451,-257.986 -102.451,-257.986c0,-0 -35.373,-159.675 -54.763,-245.781c-15.721,-70.27 -52.929,-175.18 -52.929,-175.18l-126.295,75.549c0,-0 7.075,159.014 -39.828,291.307c-45.068,127.014 -164.812,251.389 -215.121,290.318c-50.308,38.929 -98.521,60.702 -88.826,126.684c9.695,65.651 79.131,209.16 125.509,282.4c46.379,72.909 163.765,289.328 189.443,364.876c30.395,89.075 61.838,187.387 -11.529,214.109c-73.366,26.723 -182.368,-163.963 -182.368,-163.963l-356.876,-629.462c-0,0 -1.834,-33.98 26.988,-75.548c29.085,-41.238 38.78,-65.652 54.239,-119.096c15.46,-53.445 21.224,-221.368 21.224,-221.368c0,0 -125.509,-294.276 -148.829,-330.896c-23.32,-36.619 -63.672,-104.58 -63.672,-104.58c0,-0 -36.421,151.427 -102.451,291.967c-74.677,159.015 -221.934,320.009 -359.496,385.991c-141.755,68.29 -276.435,83.466 -376.79,88.415c-100.617,4.948 -158.525,-38.27 -144.899,-67.301c13.625,-29.362 270.67,-71.26 270.67,-71.26l450.156,-365.537l193.374,-608.347l368.929,-384.671l508.326,17.155l342.202,688.515c0,-0 -48.212,146.149 -52.142,172.871c-3.931,26.722 1.834,180.129 1.834,180.129c-0,-0 14.149,-60.703 25.154,-107.22c7.861,-32.66 9.695,-90.064 9.695,-90.064l75.201,-55.754Z" style="fill:#865b52;fill-rule:nonzero;"/><path d="M2472.96,862.21c0,-0 -161.93,-199.264 -214.597,-287.019c-83.848,-139.55 -144.899,-325.947 -77.297,-389.29c67.602,-63.342 189.443,82.807 257.045,196.955c67.602,114.147 134.68,296.915 150.139,250.729c15.46,-46.187 -57.383,-156.376 -104.285,-251.389c-24.106,-48.826 -88.826,-138.561 -117.124,-215.759c-24.631,-66.971 -18.866,-123.715 19.389,-149.118c85.158,-56.744 220.362,106.56 264.644,217.409c62.362,155.715 83.062,335.844 83.062,335.844c-0,0 102.451,-14.515 193.373,72.91c65.506,63.012 100.617,194.645 135.204,219.058c34.849,24.413 164.813,100.621 164.813,100.621c-0,0 102.975,147.468 7.075,269.204c-44.282,56.084 -83.062,97.322 -173.984,99.632c-79.131,1.979 -245.516,-119.097 -317.049,-102.271c-71.532,16.825 -141.754,246.11 -195.207,333.205c-71.533,116.787 -166.909,201.243 -238.442,225.326c-71.532,24.413 -219.575,25.073 -219.575,25.073c-0,0 1.834,-82.806 13.625,-119.096c11.529,-36.62 26.988,-68.291 9.695,-85.116c-17.294,-17.155 -56.073,60.703 -56.073,128.993c-0,68.291 11.529,231.265 13.625,306.483c1.834,75.549 15.459,221.368 -61.838,257.987c-77.296,36.62 -150.139,-39.588 -165.598,-66.641c-15.46,-26.722 -48.999,-67.301 -43.234,-86.765c5.764,-19.465 50.308,-70.6 81.227,-75.549c30.919,-4.948 63.672,3.299 63.672,3.299c-0,0 -10.219,-97.322 -25.679,-165.613c-15.459,-68.29 -37.993,-226.975 -32.228,-324.298c5.764,-97.322 73.366,-201.903 50.308,-235.883c-23.058,-33.98 -56.073,-4.949 -81.227,77.858c-25.155,82.807 -25.155,158.025 -23.32,221.367c1.834,63.342 11.529,121.736 11.529,121.736c-0,-0 -90.66,-5.279 -131.536,-7.258c-46.378,-2.31 -121.841,-17.155 -121.841,-17.155c-0,-0 18.866,-190.026 11.529,-291.968c-9.695,-136.251 -80.441,-276.461 -134.68,-342.442c-54.239,-65.652 -128.13,-139.551 -141.755,-97.983c-13.625,41.239 102.975,130.643 150.664,233.574c45.33,97.652 94.59,299.225 38.779,508.716c-56.073,209.161 -164.289,377.083 -227.96,438.116c-63.672,60.702 -170.054,97.322 -166.123,206.851c3.93,109.529 181.582,379.722 233.725,479.354c52.142,99.632 127.605,206.851 140.968,299.225c13.626,92.374 23.32,192.336 -73.366,138.561c-96.687,-53.445 -218.266,-350.361 -270.671,-438.116c-52.142,-87.755 -143.064,-270.193 -200.972,-364.876c-57.907,-95.013 -81.227,-104.581 -75.462,-170.232c5.764,-65.652 125.509,-131.303 152.759,-228.625c27.251,-97.323 30.919,-355.31 0,-440.425c-30.918,-85.116 -63.671,-146.149 -63.671,-146.149c-0,0 -115.553,345.742 -195.208,477.045c-106.906,176.17 -295.562,311.431 -523.785,350.36c-227.96,38.929 -285.606,9.238 -199.138,-29.361c32.753,-14.516 121.579,-57.734 211.191,-114.478c85.158,-53.445 217.742,-134.602 320.193,-328.587c113.456,-214.769 160.358,-617.914 361.33,-922.088c166.123,-251.389 484.482,-472.426 848.433,-287.019c253.114,128.994 341.94,464.838 494.7,430.528c153.546,-33.65 190.229,-245.45 190.229,-245.45Z" style="fill:#d27856;fill-rule:nonzero;"/><path d="M2525.1,753.671c-40.09,35.959 -144.375,-115.798 -192.063,-194.645c-68.389,-113.488 -108.478,-219.388 -79.918,-246.44c41.138,-38.929 127.606,94.023 176.604,186.397c63.41,119.426 122.365,230.274 95.377,254.688Z" style="fill:#ffd2af;fill-rule:nonzero;"/><path d="M2781.88,908.727c-4.192,68.62 21.748,100.951 50.308,103.26c28.561,2.31 54.763,-41.238 57.122,-88.085c2.358,-46.846 -19.128,-86.765 -47.951,-89.075c-28.56,-2.309 -56.597,27.053 -59.479,73.9Z" style="fill:#010102;fill-rule:nonzero;"/><path d="M3205.31,956.233c-25.94,21.774 -30.133,106.89 -20.7,144.499c10.219,40.579 39.828,108.539 74.677,90.724c19.39,-9.897 69.698,-131.302 59.217,-163.963c-9.957,-32.331 -97.735,-84.126 -113.194,-71.26Z" style="fill:#2c302b;fill-rule:nonzero;"/><path d="M3189.86,1272.61c-0,0 -51.619,-21.114 -69.699,-42.228c-18.079,-21.114 -43.758,-48.826 -63.147,-38.929c-19.39,9.898 -25.679,45.527 10.219,81.157c27.25,27.053 63.147,40.579 63.147,40.579c0,-0 22.01,1.649 39.828,-8.248c10.481,-5.278 22.272,-24.083 19.652,-32.331Z" style="fill:#2c302b;fill-rule:nonzero;"/></g></g></svg>