<?xml version="1.0" encoding="UTF-8" standalone="no"?><!DOCTYPE svg PUBLIC "-//W3C//DTD SVG 1.1//EN" "http://www.w3.org/Graphics/SVG/1.1/DTD/svg11.dtd"><svg width="100%" height="100%" viewBox="0 0 500 320" version="1.1" xmlns="http://www.w3.org/2000/svg" xmlns:xlink="http://www.w3.org/1999/xlink" xml:space="preserve" xmlns:serif="http://www.serif.com/" style="fill-rule:evenodd;clip-rule:evenodd;stroke-linejoin:round;stroke-miterlimit:2;"><g><path d="M437.336,0l-105.74,0l-37.857,54.414l0,32.393l-87.473,0l-0,-32.393l-37.856,-54.414l-105.751,0l-62.659,71.256l22.19,9.069l0,31.091l18.278,0l-0,27.208l26.11,-0l0,27.202l37.86,-0l0,97.167l66.58,57.007l157.964,0l66.58,-57.007l-0,-97.167l37.855,-0l-0,-27.202l26.114,-0l0,-27.208l18.279,0l-0,-31.091l22.19,-9.069l-62.664,-71.256Z" style="fill:#c8a269;fill-rule:nonzero;"/><path d="M331.596,0l-37.857,54.414l0,32.393l-45.217,0l0,233.193l80.46,0l66.58,-57.007l-0,-97.167l37.855,-0l-0,-27.202l26.114,-0l0,-27.208l18.279,0l-0,-31.091l22.19,-9.069l-62.664,-71.256l-105.74,0Z" style="fill:#bd965d;fill-rule:nonzero;"/><g><path d="M93.341,38.869l-27.416,34.98l22.191,0l0,22.022l18.282,-0l0,20.73l27.416,0l24.799,-23.317l0,-36.277l-13.052,-18.138l-52.22,-0Z" style="fill:#f7f7f7;fill-rule:nonzero;"/><path d="M406.653,38.869l-52.209,-0l-13.057,18.138l-0,36.277l24.799,23.317l27.416,0l-0,-20.73l18.282,-0l-0,-22.022l22.196,0l-27.427,-34.98Z" style="fill:#e9e8e8;fill-rule:nonzero;"/></g><g><path d="M184.728,198.872c-0,7.511 -6.138,13.601 -13.711,13.601c-7.574,-0 -13.705,-6.09 -13.705,-13.601c-0,-7.515 6.132,-13.606 13.705,-13.606c7.574,-0 13.711,6.09 13.711,13.606Z" style="fill:#727171;fill-rule:nonzero;"/><path d="M315.277,198.872c0,7.511 6.126,13.601 13.705,13.601c7.569,-0 13.711,-6.09 13.711,-13.601c0,-7.515 -6.142,-13.606 -13.711,-13.606c-7.578,-0 -13.705,6.09 -13.705,13.606Z" style="fill:#727171;fill-rule:nonzero;"/></g><rect x="221.931" y="287.613" width="56.133" height="7.777" style="fill:#727171;"/><path d="M290.764,175.358l-58.28,94.137l50.007,50.505l46.491,0l56.818,-48.642l-95.036,-96Z" style="fill:#231815;fill-opacity:0.07;fill-rule:nonzero;"/><path d="M289.167,176.263l-78.334,0l0,66.735l20.89,27.901l36.549,0l20.895,-27.901l-0,-66.735Z" style="fill:#776868;fill-rule:nonzero;"/></g></svg>